<?xml version="1.0" encoding="utf-8"?>
<svg viewBox="263.514 173.942 177.514 248.894" width="177.514" height="248.894" xmlns="http://www.w3.org/2000/svg">
  <text style="fill: rgb(51, 51, 51); font-family: ESSTIXFourteen; font-size: 39.7px; white-space: pre;" x="-3.63"><tspan x="278.617" y="210.624" style="font-size: 39.7px; word-spacing: 0px;">FICTI</tspan><tspan style="opacity: 0; font-size: 39.7px; word-spacing: 0px;">O</tspan><tspan style="font-size: 39.7px; word-spacing: 0px;">N</tspan></text>
  <path d="M 393.836 200.09 L 394.731 200.09 L 394.731 203.669 L 393.836 203.669 L 393.836 200.09 Z" style="stroke-width: 1.00033px;"/>
  <path d="M 396.52 203.669 L 397.415 203.669 C 397.909 203.669 398.31 203.268 398.31 202.774 L 398.31 200.984 C 398.31 200.491 397.909 200.09 397.415 200.09 L 396.52 200.09 C 396.027 200.09 395.625 200.491 395.625 200.984 L 395.625 202.774 C 395.625 203.268 396.027 203.669 396.52 203.669 Z M 396.52 200.984 L 397.415 200.984 L 397.416 202.774 L 396.52 202.774 L 396.52 200.984 Z" style="stroke-width: 1.00033px;"/>
  <path d="M 399.206 200.09 L 400.101 200.09 L 400.101 203.669 L 399.206 203.669 L 399.206 200.09 Z" style="stroke-width: 1.00033px;"/>
  <path d="M 401.89 200.09 C 401.397 200.09 400.995 200.491 400.995 200.984 L 400.995 202.774 C 400.995 203.268 401.397 203.669 401.89 203.669 L 402.785 203.669 C 403.279 203.669 403.68 203.268 403.68 202.774 L 403.68 200.984 C 403.68 200.491 403.279 200.09 402.785 200.09 L 401.89 200.09 Z M 401.89 202.774 L 401.89 200.984 L 402.785 200.984 L 402.785 202.774 L 401.89 202.774 Z" style="stroke-width: 1.00033px;"/>
  <path d="M 404.575 200.09 L 405.469 200.09 L 405.469 203.669 L 404.575 203.669 L 404.575 200.09 Z" style="stroke-width: 1.00033px;"/>
  <path d="M 409.76 198.299 L 400.427 198.299 L 400.427 194.818 L 399.318 194.54 C 399.079 193.416 398.645 192.364 398.022 191.407 L 398.609 190.428 L 396.217 188.035 L 395.238 188.622 C 394.982 188.455 394.716 188.304 394.445 188.165 L 395.745 186.218 L 403.112 186.218 L 403.112 185.322 L 402.217 185.322 L 402.217 182.637 L 401.322 182.637 L 401.322 185.322 L 400.427 185.322 L 400.427 183.532 L 399.533 183.532 L 399.533 185.322 L 398.638 185.322 L 398.638 182.637 L 397.743 182.637 L 397.743 185.322 L 396.847 185.322 L 396.847 184.427 L 395.952 184.427 L 395.952 185.322 L 395.266 185.322 L 393.62 187.79 C 393.132 187.595 392.627 187.438 392.105 187.327 L 391.827 186.218 L 388.444 186.218 L 388.166 187.327 C 387.043 187.566 385.992 188 385.033 188.623 L 384.053 188.036 L 381.661 190.428 L 382.248 191.407 C 381.627 192.365 381.193 193.418 380.952 194.541 L 379.843 194.818 L 379.843 198.202 L 380.952 198.479 C 381.191 199.602 381.627 200.654 382.248 201.613 L 381.661 202.591 L 384.053 204.984 L 385.033 204.396 C 385.991 205.018 387.043 205.453 388.166 205.692 L 388.444 206.802 L 389.787 206.802 L 390.682 210.381 L 399.533 210.381 L 399.533 209.486 L 398.638 209.486 L 398.638 207.697 L 397.743 207.697 L 397.743 209.486 L 396.847 209.486 L 396.847 208.591 L 395.952 208.591 L 395.952 209.486 L 395.057 209.486 L 395.057 206.802 L 394.162 206.802 L 394.162 209.486 L 393.268 209.486 L 393.268 207.697 L 392.373 207.697 L 392.373 209.486 L 391.38 209.486 L 390.708 206.802 L 391.8 206.802 L 392.247 205.458 L 409.76 205.458 L 409.76 204.564 L 391.602 204.564 L 391.155 205.906 L 389.142 205.906 L 388.895 204.919 L 388.61 204.867 C 387.41 204.65 386.296 204.188 385.3 203.498 L 385.063 203.334 L 384.193 203.856 L 382.788 202.452 L 383.31 201.581 L 383.145 201.344 C 382.455 200.348 381.995 199.234 381.777 198.034 L 381.725 197.75 L 380.738 197.502 L 380.738 195.516 L 381.725 195.27 L 381.777 194.986 C 381.995 193.785 382.455 192.671 383.145 191.675 L 383.31 191.437 L 382.788 190.566 L 384.192 189.163 L 385.063 189.685 L 385.3 189.52 C 386.296 188.83 387.41 188.37 388.61 188.151 L 388.894 188.1 L 389.142 187.113 L 391.128 187.113 L 391.375 188.1 L 391.659 188.152 C 392.861 188.37 393.973 188.83 394.97 189.52 L 395.206 189.685 L 396.078 189.163 L 397.481 190.568 L 396.959 191.437 L 397.124 191.675 C 397.814 192.671 398.274 193.785 398.492 194.986 L 398.544 195.27 L 399.533 195.516 L 399.533 198.299 L 397.53 198.299 C 397.671 197.716 397.743 197.116 397.743 196.509 C 397.743 192.315 394.331 188.902 390.135 188.902 C 385.94 188.902 382.528 192.315 382.528 196.509 C 382.528 200.704 385.94 204.116 390.135 204.116 C 390.948 204.116 391.748 203.988 392.513 203.737 L 392.232 202.888 C 391.985 202.969 391.733 203.03 391.477 203.082 L 391.477 201.537 C 391.477 201.106 391.375 200.675 391.182 200.29 C 390.708 199.338 389.751 198.746 388.687 198.746 L 386.916 198.746 C 386.319 198.746 385.738 198.866 385.188 199.101 C 384.845 199.249 384.524 199.446 384.224 199.684 C 383.714 198.738 383.424 197.657 383.424 196.509 C 383.424 196.185 383.454 195.868 383.499 195.555 C 383.667 195.593 383.837 195.614 384.008 195.614 C 384.556 195.614 385.042 195.942 385.245 196.451 C 385.585 197.302 386.397 197.851 387.313 197.851 L 389.687 197.851 C 390.674 197.851 391.478 197.049 391.478 196.062 C 391.478 195.075 390.674 194.272 389.687 194.272 C 389.194 194.272 388.792 193.871 388.792 193.377 L 388.792 192.659 C 388.792 192.162 388.647 191.681 388.372 191.267 L 387.701 190.262 C 388.408 189.985 389.172 189.825 389.973 189.806 C 389.789 190.154 389.687 190.543 389.687 190.943 C 389.687 191.776 390.102 192.55 390.795 193.013 L 391.663 193.59 C 392.108 193.888 392.373 194.383 392.373 194.916 C 392.373 196.288 393.489 197.404 394.861 197.404 C 395.571 197.404 396.246 197.206 396.834 196.842 C 396.805 197.444 396.7 198.037 396.513 198.607 L 396.32 199.194 L 409.76 199.194 L 409.76 198.299 Z M 385.54 199.924 C 385.978 199.737 386.441 199.641 386.916 199.641 L 388.687 199.641 C 389.409 199.641 390.059 200.043 390.382 200.69 C 390.513 200.951 390.583 201.245 390.583 201.537 L 390.583 203.204 C 390.434 203.214 390.285 203.221 390.135 203.221 C 387.902 203.221 385.927 202.122 384.705 200.441 C 384.965 200.225 385.244 200.052 385.54 199.924 Z M 387.627 191.764 C 387.804 192.03 387.898 192.339 387.898 192.659 L 387.898 193.377 C 387.898 194.365 388.7 195.167 389.687 195.167 C 390.181 195.167 390.583 195.568 390.583 196.062 C 390.583 196.555 390.181 196.957 389.687 196.957 L 387.313 196.957 C 386.764 196.957 386.278 196.629 386.076 196.12 C 385.736 195.269 384.923 194.72 384.008 194.72 C 383.899 194.72 383.792 194.705 383.683 194.679 C 384.175 192.949 385.34 191.501 386.881 190.643 L 387.627 191.764 Z M 393.268 194.916 C 393.268 194.083 392.853 193.309 392.16 192.846 L 391.292 192.268 C 390.847 191.971 390.582 191.477 390.582 190.943 C 390.582 190.54 390.748 190.159 391.028 189.863 C 394.06 190.269 396.455 192.7 396.801 195.751 C 396.268 196.239 395.588 196.509 394.861 196.509 C 393.981 196.509 393.268 195.795 393.268 194.916 Z" style="stroke-width: 1.00033px;"/>
  <path d="M 392.941 198.299 L 396.073 198.299 L 396.073 199.194 L 392.941 199.194 L 392.941 198.299 Z" style="stroke-width: 1.00033px;"/>
  <path d="M 407.26 200.09 C 406.767 200.09 406.365 200.491 406.365 200.984 L 406.365 202.774 C 406.365 203.268 406.767 203.669 407.26 203.669 L 408.155 203.669 C 408.649 203.669 409.05 203.268 409.05 202.774 L 409.05 200.984 C 409.05 200.491 408.649 200.09 408.155 200.09 L 407.26 200.09 Z M 407.26 202.774 L 407.26 200.984 L 408.155 200.984 L 408.155 202.774 L 407.26 202.774 Z" style="stroke-width: 1.00033px;"/>
</svg>