<?xml version="1.0" encoding="utf-8"?>
<svg viewBox="278.617 173.942 162.411 39.943" width="162.411px" height="39.943px" xmlns="http://www.w3.org/2000/svg">
  <text style="fill: rgb(51, 51, 51); font-family: ESSTIXFourteen; font-size: 39.7px; white-space: pre;" x="-3.63" y="-6.793"><tspan x="278.617" y="203.831" style="font-size: 39.7px; word-spacing: 0px;">FICTI</tspan><tspan style="opacity: 0; font-size: 39.7px; word-spacing: 0px;">O</tspan><tspan style="font-size: 39.7px; word-spacing: 0px;">N</tspan></text>
  <path d="M 393.836 193.297 L 394.731 193.297 L 394.731 196.876 L 393.836 196.876 L 393.836 193.297 Z" style="stroke-width: 1.00033px;"/>
  <path d="M 396.52 196.876 L 397.415 196.876 C 397.909 196.876 398.31 196.475 398.31 195.981 L 398.31 194.191 C 398.31 193.698 397.909 193.297 397.415 193.297 L 396.52 193.297 C 396.027 193.297 395.625 193.698 395.625 194.191 L 395.625 195.981 C 395.625 196.475 396.027 196.876 396.52 196.876 Z M 396.52 194.191 L 397.415 194.191 L 397.416 195.981 L 396.52 195.981 L 396.52 194.191 Z" style="stroke-width: 1.00033px;"/>
  <path d="M 399.206 193.297 L 400.101 193.297 L 400.101 196.876 L 399.206 196.876 L 399.206 193.297 Z" style="stroke-width: 1.00033px;"/>
  <path d="M 401.89 193.297 C 401.397 193.297 400.995 193.698 400.995 194.191 L 400.995 195.981 C 400.995 196.475 401.397 196.876 401.89 196.876 L 402.785 196.876 C 403.279 196.876 403.68 196.475 403.68 195.981 L 403.68 194.191 C 403.68 193.698 403.279 193.297 402.785 193.297 L 401.89 193.297 Z M 401.89 195.981 L 401.89 194.191 L 402.785 194.191 L 402.785 195.981 L 401.89 195.981 Z" style="stroke-width: 1.00033px;"/>
  <path d="M 404.575 193.297 L 405.469 193.297 L 405.469 196.876 L 404.575 196.876 L 404.575 193.297 Z" style="stroke-width: 1.00033px;"/>
  <path d="M 409.76 191.506 L 400.427 191.506 L 400.427 188.025 L 399.318 187.747 C 399.079 186.623 398.645 185.571 398.022 184.614 L 398.609 183.635 L 396.217 181.242 L 395.238 181.829 C 394.982 181.662 394.716 181.511 394.445 181.372 L 395.745 179.425 L 403.112 179.425 L 403.112 178.529 L 402.217 178.529 L 402.217 175.844 L 401.322 175.844 L 401.322 178.529 L 400.427 178.529 L 400.427 176.739 L 399.533 176.739 L 399.533 178.529 L 398.638 178.529 L 398.638 175.844 L 397.743 175.844 L 397.743 178.529 L 396.847 178.529 L 396.847 177.634 L 395.952 177.634 L 395.952 178.529 L 395.266 178.529 L 393.62 180.997 C 393.132 180.802 392.627 180.645 392.105 180.534 L 391.827 179.425 L 388.444 179.425 L 388.166 180.534 C 387.043 180.773 385.992 181.207 385.033 181.83 L 384.053 181.243 L 381.661 183.635 L 382.248 184.614 C 381.627 185.572 381.193 186.625 380.952 187.748 L 379.843 188.025 L 379.843 191.409 L 380.952 191.686 C 381.191 192.809 381.627 193.861 382.248 194.82 L 381.661 195.798 L 384.053 198.191 L 385.033 197.603 C 385.991 198.225 387.043 198.66 388.166 198.899 L 388.444 200.009 L 389.787 200.009 L 390.682 203.588 L 399.533 203.588 L 399.533 202.693 L 398.638 202.693 L 398.638 200.904 L 397.743 200.904 L 397.743 202.693 L 396.847 202.693 L 396.847 201.798 L 395.952 201.798 L 395.952 202.693 L 395.057 202.693 L 395.057 200.009 L 394.162 200.009 L 394.162 202.693 L 393.268 202.693 L 393.268 200.904 L 392.373 200.904 L 392.373 202.693 L 391.38 202.693 L 390.708 200.009 L 391.8 200.009 L 392.247 198.665 L 409.76 198.665 L 409.76 197.771 L 391.602 197.771 L 391.155 199.113 L 389.142 199.113 L 388.895 198.126 L 388.61 198.074 C 387.41 197.857 386.296 197.395 385.3 196.705 L 385.063 196.541 L 384.193 197.063 L 382.788 195.659 L 383.31 194.788 L 383.145 194.551 C 382.455 193.555 381.995 192.441 381.777 191.241 L 381.725 190.957 L 380.738 190.709 L 380.738 188.723 L 381.725 188.477 L 381.777 188.193 C 381.995 186.992 382.455 185.878 383.145 184.882 L 383.31 184.644 L 382.788 183.773 L 384.192 182.37 L 385.063 182.892 L 385.3 182.727 C 386.296 182.037 387.41 181.577 388.61 181.358 L 388.894 181.307 L 389.142 180.32 L 391.128 180.32 L 391.375 181.307 L 391.659 181.359 C 392.861 181.577 393.973 182.037 394.97 182.727 L 395.206 182.892 L 396.078 182.37 L 397.481 183.775 L 396.959 184.644 L 397.124 184.882 C 397.814 185.878 398.274 186.992 398.492 188.193 L 398.544 188.477 L 399.533 188.723 L 399.533 191.506 L 397.53 191.506 C 397.671 190.923 397.743 190.323 397.743 189.716 C 397.743 185.522 394.331 182.109 390.135 182.109 C 385.94 182.109 382.528 185.522 382.528 189.716 C 382.528 193.911 385.94 197.323 390.135 197.323 C 390.948 197.323 391.748 197.195 392.513 196.944 L 392.232 196.095 C 391.985 196.176 391.733 196.237 391.477 196.289 L 391.477 194.744 C 391.477 194.313 391.375 193.882 391.182 193.497 C 390.708 192.545 389.751 191.953 388.687 191.953 L 386.916 191.953 C 386.319 191.953 385.738 192.073 385.188 192.308 C 384.845 192.456 384.524 192.653 384.224 192.891 C 383.714 191.945 383.424 190.864 383.424 189.716 C 383.424 189.392 383.454 189.075 383.499 188.762 C 383.667 188.8 383.837 188.821 384.008 188.821 C 384.556 188.821 385.042 189.149 385.245 189.658 C 385.585 190.509 386.397 191.058 387.313 191.058 L 389.687 191.058 C 390.674 191.058 391.478 190.256 391.478 189.269 C 391.478 188.282 390.674 187.479 389.687 187.479 C 389.194 187.479 388.792 187.078 388.792 186.584 L 388.792 185.866 C 388.792 185.369 388.647 184.888 388.372 184.474 L 387.701 183.469 C 388.408 183.192 389.172 183.032 389.973 183.013 C 389.789 183.361 389.687 183.75 389.687 184.15 C 389.687 184.983 390.102 185.757 390.795 186.22 L 391.663 186.797 C 392.108 187.095 392.373 187.59 392.373 188.123 C 392.373 189.495 393.489 190.611 394.861 190.611 C 395.571 190.611 396.246 190.413 396.834 190.049 C 396.805 190.651 396.7 191.244 396.513 191.814 L 396.32 192.401 L 409.76 192.401 L 409.76 191.506 Z M 385.54 193.131 C 385.978 192.944 386.441 192.848 386.916 192.848 L 388.687 192.848 C 389.409 192.848 390.059 193.25 390.382 193.897 C 390.513 194.158 390.583 194.452 390.583 194.744 L 390.583 196.411 C 390.434 196.421 390.285 196.428 390.135 196.428 C 387.902 196.428 385.927 195.329 384.705 193.648 C 384.965 193.432 385.244 193.259 385.54 193.131 Z M 387.627 184.971 C 387.804 185.237 387.898 185.546 387.898 185.866 L 387.898 186.584 C 387.898 187.572 388.7 188.374 389.687 188.374 C 390.181 188.374 390.583 188.775 390.583 189.269 C 390.583 189.762 390.181 190.164 389.687 190.164 L 387.313 190.164 C 386.764 190.164 386.278 189.836 386.076 189.327 C 385.736 188.476 384.923 187.927 384.008 187.927 C 383.899 187.927 383.792 187.912 383.683 187.886 C 384.175 186.156 385.34 184.708 386.881 183.85 L 387.627 184.971 Z M 393.268 188.123 C 393.268 187.29 392.853 186.516 392.16 186.053 L 391.292 185.475 C 390.847 185.178 390.582 184.684 390.582 184.15 C 390.582 183.747 390.748 183.366 391.028 183.07 C 394.06 183.476 396.455 185.907 396.801 188.958 C 396.268 189.446 395.588 189.716 394.861 189.716 C 393.981 189.716 393.268 189.002 393.268 188.123 Z" style="stroke-width: 1.00033px;"/>
  <path d="M 392.941 191.506 L 396.073 191.506 L 396.073 192.401 L 392.941 192.401 L 392.941 191.506 Z" style="stroke-width: 1.00033px;"/>
  <path d="M 407.26 193.297 C 406.767 193.297 406.365 193.698 406.365 194.191 L 406.365 195.981 C 406.365 196.475 406.767 196.876 407.26 196.876 L 408.155 196.876 C 408.649 196.876 409.05 196.475 409.05 195.981 L 409.05 194.191 C 409.05 193.698 408.649 193.297 408.155 193.297 L 407.26 193.297 Z M 407.26 195.981 L 407.26 194.191 L 408.155 194.191 L 408.155 195.981 L 407.26 195.981 Z" style="stroke-width: 1.00033px;"/>
</svg>