<?xml version="1.0" encoding="utf-8"?>
<svg viewBox="304.205 173.942 136.823 45.649" width="136.823px" height="45.649px" xmlns="http://www.w3.org/2000/svg">
  <text style="fill: rgb(51, 51, 51); font-family: &quot;Arial Narrow&quot;; font-size: 39.7px; white-space: pre;" y="-26.058" x="22.854"><tspan x="304.205" y="211.167" style="font-size: 39.7px; word-spacing: 0px;">FICTI</tspan><tspan style="opacity: 0; font-size: 39.7px; word-spacing: 0px;">O</tspan><tspan style="font-size: 29px; opacity: 0; word-spacing: 0px;"> </tspan><tspan style="font-size: 39.7px; word-spacing: 0px;">N</tspan></text>
  <path d="M 400.424 200.645 L 401.346 200.645 L 401.346 204.335 L 400.424 204.335 L 400.424 200.645 Z" style=""/>
  <path d="M 403.19 204.335 L 404.113 204.335 C 404.622 204.335 405.035 203.921 405.035 203.413 L 405.035 201.568 C 405.035 201.059 404.622 200.645 404.113 200.645 L 403.19 200.645 C 402.682 200.645 402.268 201.059 402.268 201.568 L 402.268 203.413 C 402.268 203.921 402.682 204.335 403.19 204.335 Z M 403.19 201.568 L 404.113 201.568 L 404.114 203.413 L 403.19 203.413 L 403.19 201.568 Z" style=""/>
  <path d="M 405.956 200.645 L 406.879 200.645 L 406.879 204.335 L 405.956 204.335 L 405.956 200.645 Z" style=""/>
  <path d="M 408.724 200.645 C 408.215 200.645 407.802 201.059 407.802 201.568 L 407.802 203.413 C 407.802 203.921 408.215 204.335 408.724 204.335 L 409.647 204.335 C 410.155 204.335 410.569 203.921 410.569 203.413 L 410.569 201.568 C 410.569 201.059 410.155 200.645 409.647 200.645 L 408.724 200.645 Z M 408.724 203.413 L 408.724 201.568 L 409.647 201.568 L 409.647 203.413 L 408.724 203.413 Z" style=""/>
  <path d="M 411.49 200.645 L 412.413 200.645 L 412.413 204.335 L 411.49 204.335 L 411.49 200.645 Z" style=""/>
  <path d="M 416.832 198.802 L 407.217 198.802 L 407.217 195.214 L 406.073 194.928 C 405.827 193.771 405.38 192.686 404.738 191.699 L 405.344 190.691 L 402.879 188.225 L 401.87 188.83 C 401.605 188.658 401.332 188.503 401.052 188.358 L 402.391 186.352 L 409.984 186.352 L 409.984 185.429 L 409.061 185.429 L 409.061 182.663 L 408.138 182.663 L 408.138 185.429 L 407.217 185.429 L 407.217 183.586 L 406.295 183.586 L 406.295 185.429 L 405.372 185.429 L 405.372 182.663 L 404.45 182.663 L 404.45 185.429 L 403.527 185.429 L 403.527 184.507 L 402.605 184.507 L 402.605 185.429 L 401.898 185.429 L 400.202 187.973 C 399.699 187.772 399.179 187.61 398.641 187.495 L 398.354 186.352 L 394.868 186.352 L 394.582 187.495 C 393.424 187.741 392.342 188.19 391.354 188.83 L 390.345 188.225 L 387.879 190.691 L 388.484 191.699 C 387.843 192.686 387.395 193.771 387.149 194.928 L 386.006 195.214 L 386.006 198.701 L 387.149 198.987 C 387.395 200.144 387.843 201.228 388.484 202.216 L 387.879 203.224 L 390.344 205.689 L 391.353 205.084 C 392.342 205.725 393.424 206.172 394.582 206.419 L 394.868 207.563 L 396.251 207.563 L 397.174 211.251 L 406.295 211.251 L 406.295 210.329 L 405.372 210.329 L 405.372 208.485 L 404.45 208.485 L 404.45 210.329 L 403.527 210.329 L 403.527 209.407 L 402.605 209.407 L 402.605 210.329 L 401.683 210.329 L 401.683 207.563 L 400.761 207.563 L 400.761 210.329 L 399.839 210.329 L 399.839 208.485 L 398.917 208.485 L 398.917 210.329 L 397.894 210.329 L 397.201 207.563 L 398.326 207.563 L 398.788 206.179 L 416.832 206.179 L 416.832 205.258 L 398.124 205.258 L 397.662 206.64 L 395.587 206.64 L 395.333 205.622 L 395.041 205.569 C 393.803 205.345 392.656 204.87 391.629 204.159 L 391.386 203.99 L 390.488 204.527 L 389.04 203.081 L 389.578 202.184 L 389.409 201.939 C 388.698 200.913 388.224 199.765 387.999 198.527 L 387.945 198.235 L 386.927 197.981 L 386.927 195.935 L 387.945 195.68 L 387.999 195.387 C 388.224 194.15 388.698 193.002 389.409 191.976 L 389.579 191.731 L 389.04 190.834 L 390.488 189.386 L 391.385 189.925 L 391.629 189.755 C 392.656 189.043 393.803 188.569 395.041 188.345 L 395.332 188.292 L 395.587 187.274 L 397.634 187.274 L 397.889 188.292 L 398.181 188.345 C 399.419 188.569 400.566 189.044 401.593 189.755 L 401.837 189.925 L 402.734 189.386 L 404.181 190.834 L 403.643 191.731 L 403.813 191.976 C 404.524 193.002 404.998 194.15 405.223 195.387 L 405.276 195.68 L 406.295 195.934 L 406.295 198.802 L 404.232 198.802 C 404.376 198.201 404.45 197.582 404.45 196.957 C 404.45 192.635 400.934 189.119 396.611 189.119 C 392.289 189.119 388.773 192.635 388.773 196.957 C 388.773 201.279 392.289 204.796 396.611 204.796 C 397.449 204.796 398.273 204.665 399.061 204.405 L 398.773 203.53 C 398.518 203.613 398.257 203.677 397.994 203.73 L 397.994 202.139 C 397.994 201.694 397.89 201.25 397.69 200.852 C 397.2 199.872 396.215 199.263 395.119 199.263 L 393.296 199.263 C 392.679 199.263 392.08 199.386 391.513 199.628 C 391.16 199.78 390.829 199.984 390.519 200.229 C 389.995 199.254 389.695 198.141 389.695 196.957 C 389.695 196.622 389.727 196.295 389.772 195.973 C 389.946 196.014 390.121 196.034 390.298 196.034 C 390.862 196.034 391.362 196.373 391.573 196.898 C 391.922 197.774 392.759 198.34 393.702 198.34 L 396.151 198.34 C 397.167 198.34 397.994 197.514 397.994 196.496 C 397.994 195.479 397.167 194.652 396.151 194.652 C 395.641 194.652 395.228 194.239 395.228 193.73 L 395.228 192.989 C 395.228 192.478 395.078 191.982 394.794 191.556 L 394.103 190.52 C 394.831 190.235 395.619 190.071 396.442 190.05 C 396.255 190.409 396.151 190.808 396.151 191.221 C 396.151 192.079 396.577 192.878 397.292 193.354 L 398.186 193.95 C 398.643 194.255 398.917 194.766 398.917 195.316 C 398.917 196.73 400.066 197.88 401.48 197.88 C 402.212 197.88 402.908 197.675 403.514 197.3 C 403.484 197.921 403.377 198.531 403.184 199.118 L 402.984 199.724 L 416.832 199.724 L 416.832 198.802 Z M 391.876 200.475 C 392.327 200.283 392.804 200.185 393.296 200.185 L 395.119 200.185 C 395.864 200.185 396.533 200.598 396.866 201.264 C 397.002 201.534 397.072 201.837 397.072 202.139 L 397.072 203.856 C 396.919 203.866 396.765 203.874 396.611 203.874 C 394.311 203.874 392.275 202.741 391.017 201.008 C 391.283 200.786 391.571 200.607 391.876 200.475 Z M 394.027 192.067 C 394.21 192.341 394.306 192.66 394.306 192.99 L 394.306 193.73 C 394.306 194.747 395.133 195.573 396.151 195.573 C 396.659 195.573 397.072 195.988 397.072 196.496 C 397.072 197.005 396.659 197.418 396.151 197.418 L 393.702 197.418 C 393.138 197.418 392.637 197.08 392.428 196.556 C 392.078 195.679 391.241 195.113 390.298 195.113 C 390.187 195.113 390.074 195.098 389.964 195.071 C 390.469 193.289 391.67 191.798 393.257 190.913 L 394.027 192.067 Z M 399.839 195.316 C 399.839 194.456 399.411 193.659 398.697 193.183 L 397.803 192.588 C 397.345 192.282 397.072 191.771 397.072 191.221 C 397.072 190.807 397.242 190.414 397.532 190.109 C 400.655 190.528 403.124 193.032 403.48 196.175 C 402.93 196.679 402.229 196.958 401.48 196.958 C 400.574 196.958 399.839 196.222 399.839 195.316 Z" style=""/>
  <path d="M 399.502 198.802 L 402.729 198.802 L 402.729 199.724 L 399.502 199.724 L 399.502 198.802 Z" style=""/>
  <path d="M 414.257 200.645 C 413.749 200.645 413.335 201.059 413.335 201.568 L 413.335 203.413 C 413.335 203.921 413.749 204.335 414.257 204.335 L 415.18 204.335 C 415.688 204.335 416.101 203.921 416.101 203.413 L 416.101 201.568 C 416.101 201.059 415.688 200.645 415.18 200.645 L 414.257 200.645 Z M 414.257 203.413 L 414.257 201.568 L 415.18 201.568 L 415.18 203.413 L 414.257 203.413 Z" style=""/>
</svg>